<?xml version="1.0" encoding="utf-8"?>
<svg version="1.0" xmlns="http://www.w3.org/2000/svg" x="0px" y="0px"
     viewBox="0 0 60 60" preserveAspectRatio="xMidYMid meet" xml:space="preserve">
	<path fill="#FD7B34" transform="translate(6, 14)" d="M46,15.7c0,0.7-0.6,1.3-1.3,1.3h-11l0,0h-0.3l0,0c-0.7,0.1-1.2,0.6-1.3,1.3l0,0l0,0v9.3
		c0,0.8-0.7,1.4-1.4,1.4l0,0h-9.2l0,0c-0.8,0-1.4-0.6-1.4-1.4v-9v-0.3l0,0l0,0c-0.1-0.7-0.6-1.2-1.3-1.3l0,0h-0.3h-6.7l0,0h-0.3l0,0
		c-0.7,0.1-1.2,0.6-1.3,1.3l0,0v0.3V24c0,0.5-0.3,0.9-0.9,0.9h2H4.2l0,0c-0.5,0-0.9-0.4-0.9-0.9v-6c0-0.5,0.4-0.9,0.9-0.9l0,0h4.4
		l0,0h0.2l0,0c0.7-0.1,1.2-0.6,1.3-1.3l0,0v-0.3V8.3c0-0.6,0.5-1.2,1.2-1.2l0,0H19l0,0c0.6,0,1.2,0.5,1.2,1.2v7.2v0.3l0,0
		c0.1,0.7,0.6,1.2,1.3,1.3l0,0h0.3l0,0h8.7l0,0h0.3l0,0c0.7-0.1,1.2-0.6,1.3-1.3l0,0v-0.3v-11c0-0.7,0.6-1.3,1.3-1.3h11.3
		c0.7,0,1.3,0.6,1.3,1.3L46,15.7z M44.7,0H33.3C31,0,29,1.9,29,4.2V14h-6V8c0-2.2-1.8-4-4-4h-8C8.8,4,7,5.8,7,8v6H3.8
		C1.7,14,0,15.7,0,17.8v6.5c0,2.1,1.7,3.8,3.8,3.8h5.3c2.1,0,3.9-1.7,3.9-3.8V20h4v7.7c0,2.3,1.9,4.3,4.2,4.3h9.4
		c2.3,0,4.4-2,4.4-4.3V20h9.7c2.3,0,4.3-1.9,4.3-4.2V4.2C49,1.9,46.9,0,44.7,0"/>
</svg>